<?xml version="1.0" encoding="UTF-8" standalone="no"?>
<!-- Created with Inkscape (http://www.inkscape.org/) -->

<svg
   width="210mm"
   height="297mm"
   viewBox="0 0 210 297"
   version="1.1"
   id="svg1"
   xml:space="preserve"
   inkscape:version="1.4.2 (f4327f4, 2025-05-13)"
   sodipodi:docname="noObligationPic.svg"
   xmlns:inkscape="http://www.inkscape.org/namespaces/inkscape"
   xmlns:sodipodi="http://sodipodi.sourceforge.net/DTD/sodipodi-0.dtd"
   xmlns="http://www.w3.org/2000/svg"
   xmlns:svg="http://www.w3.org/2000/svg"><sodipodi:namedview
     id="namedview1"
     pagecolor="#ffffff"
     bordercolor="#999999"
     borderopacity="1"
     inkscape:showpageshadow="2"
     inkscape:pageopacity="0"
     inkscape:pagecheckerboard="0"
     inkscape:deskcolor="#d1d1d1"
     inkscape:document-units="mm"
     inkscape:zoom="0.69753788"
     inkscape:cx="397.11105"
     inkscape:cy="561.25984"
     inkscape:window-width="1920"
     inkscape:window-height="1001"
     inkscape:window-x="-9"
     inkscape:window-y="-9"
     inkscape:window-maximized="1"
     inkscape:current-layer="layer1" /><defs
     id="defs1" /><g
     inkscape:label="Layer 1"
     inkscape:groupmode="layer"
     id="layer1"><path
       style="fill:#1f71ce;fill-opacity:1;stroke-width:1.18717"
       d="m 63.400559,202.85446 c -4.469847,-2.0689 -9.41705,-4.41055 -10.993777,-5.20366 C 34.975064,188.88245 20.635484,174.34402 11.859311,156.54109 6.5809978,145.83375 3.596518,135.1057 2.592034,123.22884 2.4081326,121.05442 2.2718758,107.91672 2.2700053,92.179646 2.2664683,61.923427 2.1521902,63.601172 4.3285732,61.941178 c 0.8922826,-0.68059 1.8059775,-0.890025 6.7876408,-1.555963 19.362213,-2.588302 36.964431,-6.628488 54.600331,-12.532281 3.368794,-1.127738 6.47848,-2.050665 6.91036,-2.050936 0.431895,-2.72e-4 2.905501,0.711786 5.496896,1.582355 19.687606,6.614026 35.715889,10.239921 59.463739,13.451796 2.63756,0.356738 4.05382,1.227708 4.90168,3.014434 0.49211,1.037029 0.52369,3.38766 0.4126,30.721762 -0.1304,32.093455 -0.10708,31.616585 -1.97644,40.470145 -5.41849,25.66337 -22.08099,48.24517 -45.054483,61.06001 -5.079858,2.83359 -22.070997,10.52186 -23.243992,10.51761 -0.736862,-0.001 -3.779106,-1.24433 -9.226346,-3.76565 z m 16.042207,-9.91381 c 3.593547,-1.65228 8.127465,-3.83892 10.075374,-4.85919 20.52033,-10.74809 35.73237,-30.42055 41.16141,-53.23063 2.09099,-8.7853 2.04689,-8.02234 2.17481,-37.614416 0.0641,-14.814103 0.0624,-26.934752 -0.004,-26.934752 -0.48176,0 -7.83227,-1.103567 -11.68913,-1.754945 C 106.84526,66.1289 91.698264,62.401747 78.362867,58.015496 l -5.728528,-1.884219 -5.265246,1.73904 C 51.161824,63.223547 32.84018,67.461483 14.892096,70.008784 l -2.608901,0.37027 0.116355,26.896041 c 0.127835,29.549135 0.08399,28.791505 2.174728,37.575735 5.35401,22.49485 20.200509,41.9195 40.38852,52.84294 3.172073,1.71637 17.009801,8.19807 17.569573,8.22973 0.207155,0.0119 3.316833,-1.33058 6.910395,-2.98285 z M 49.477118,160.81229 c -2.954798,-1.02867 -4.499285,-2.39535 -6.09923,-5.39704 L 42.629622,154.0114 V 133.75145 113.4915 l 0.863766,-1.63858 c 1.590392,-3.01696 4.421802,-5.12316 7.509704,-5.58623 l 1.443602,-0.21647 0.144976,-4.44617 c 0.122052,-3.742788 0.273724,-4.810633 0.958759,-6.750013 1.141399,-3.231438 2.569425,-5.505669 4.955024,-7.891275 2.372903,-2.372902 4.63648,-3.798795 7.891259,-4.970937 2.026282,-0.729721 2.776917,-0.829697 6.230193,-0.829697 3.453273,0 4.203931,0.09998 6.230213,0.829697 3.254772,1.172142 5.518357,2.598035 7.891261,4.970937 2.399439,2.399461 3.829034,4.684233 4.937494,7.89118 0.654562,1.893717 0.825931,3.095694 0.962459,6.750658 l 0.166117,4.44673 1.439938,0.21593 c 3.186384,0.47781 6.109153,2.7177 7.546923,5.78359 l 0.82291,1.75474 v 19.94586 19.94584 l -0.82291,1.75475 c -1.046,2.2305 -2.730455,3.91494 -4.960927,4.96093 l -1.754759,0.82292 -21.987549,0.0725 c -20.519076,0.0676 -22.096632,0.0346 -23.620957,-0.49611 z M 92.729812,133.75145 V 116.16141 H 72.626905 52.524013 v 17.59004 17.59004 h 20.102892 20.102907 z m -10.113,-31.48932 c -0.145326,-4.432194 -0.719253,-6.057077 -2.914977,-8.25281 -2.063799,-2.063813 -3.931451,-2.804016 -7.07493,-2.804016 -3.143465,0 -5.011107,0.740203 -7.074908,2.804016 -2.195733,2.195733 -2.76966,3.820616 -2.914971,8.25281 l -0.126151,3.84783 h 10.11603 10.116053 z"
       id="path1" /></g></svg>
