<?xml version="1.0" encoding="UTF-8"?>
<!-- Created with Inkscape (http://www.inkscape.org/) -->
<svg width="210mm" height="297mm" version="1.1" viewBox="0 0 210 297" xmlns="http://www.w3.org/2000/svg">
 <path d="m98.291 259.92c-17.611-1.8201-33.319-8.1008-47.411-18.957-4.4413-3.4215-12.8-11.967-16.263-16.626-9.2822-12.488-14.93-25.902-17.29-41.066-1.0999-7.0671-1.0999-19.37 0-26.437 3.0565-19.638 11.557-36.381 25.603-50.426 11.746-11.746 24.996-19.412 40.763-23.583 8.1114-2.146 13.375-2.7872 22.882-2.7872 9.4183 0 14.66 0.63038 22.736 2.7343 25.176 6.5587 46.833 24.282 58.168 47.602 4.3621 8.9741 6.8492 16.862 8.343 26.46 1.0999 7.0671 1.0999 19.37 0 26.437-1.4973 9.6204-3.9959 17.536-8.3453 26.437-8.7768 17.963-23.284 32.469-41.246 41.246-8.8814 4.3395-16.995 6.9001-26.328 8.309-5.4322 0.82002-16.71 1.1621-21.611 0.65557zm15.334-11.985c30.876-2.8192 57.495-23.984 67.18-53.415 11.103-33.739-1.8744-70.57-31.754-90.124-1.7448-1.1418-5.3932-3.1686-8.1074-4.5039-38.685-19.031-85.37-3.0504-104.53 35.782-13.05 26.449-10.04 57.604 7.8843 81.612 3.2104 4.2999 10.745 11.834 15.045 15.045 15.913 11.881 34.992 17.366 54.282 15.604zm20.048-48.694c-0.7029-0.44661-8.1178-6.2845-16.478-12.973-12.35-9.881-15.333-12.432-15.913-13.608-0.69923-1.4184-0.71153-1.9584-0.61852-27.17l0.0949-25.723 0.98758-1.2946c1.2761-1.6728 2.7844-2.4327 4.8286-2.4327 2.0442 0 3.5525 0.75988 4.8286 2.4327l0.98759 1.2946 0.1906 47.408 14.181 11.337c8.8245 7.0552 14.487 11.826 14.993 12.63 1.0278 1.6366 0.95114 4.822-0.15165 6.299-1.269 1.6997-2.4672 2.3429-4.6212 2.4806-1.6592 0.10606-2.2658-0.019-3.3096-0.68216z" fill="#1f71ce"/>
</svg>
