<?xml version="1.0" encoding="UTF-8" standalone="no"?>
<!-- Created with Inkscape (http://www.inkscape.org/) -->

<svg
   width="210mm"
   height="297mm"
   viewBox="0 0 210 297"
   version="1.1"
   id="svg1"
   sodipodi:docname="verifyPic.svg"
   xml:space="preserve"
   inkscape:version="1.4.2 (f4327f4, 2025-05-13)"
   xmlns:inkscape="http://www.inkscape.org/namespaces/inkscape"
   xmlns:sodipodi="http://sodipodi.sourceforge.net/DTD/sodipodi-0.dtd"
   xmlns="http://www.w3.org/2000/svg"
   xmlns:svg="http://www.w3.org/2000/svg"><sodipodi:namedview
     id="namedview1"
     pagecolor="#ffffff"
     bordercolor="#999999"
     borderopacity="1"
     inkscape:showpageshadow="2"
     inkscape:pageopacity="0"
     inkscape:pagecheckerboard="0"
     inkscape:deskcolor="#d1d1d1"
     inkscape:document-units="mm"
     inkscape:zoom="0.69753788"
     inkscape:cx="204.28998"
     inkscape:cy="595.66658"
     inkscape:window-width="1920"
     inkscape:window-height="1001"
     inkscape:window-x="-9"
     inkscape:window-y="-9"
     inkscape:window-maximized="1"
     inkscape:current-layer="layer1" /><defs
     id="defs1" /><g
     inkscape:label="Layer 1"
     inkscape:groupmode="layer"
     id="layer1"><path
       style="fill:#000000;stroke-width:1.76961"
       d="m 99.036984,270.31818 c -5.2801,-2.1754 -14.37953,-6.81446 -19.86052,-10.12527 C 53.755073,244.83703 33.37963,222.82289 20.092794,196.35747 11.794572,179.82859 6.9161518,163.49603 4.1937518,143.12874 l -0.531944,-3.97977 -0.216052,-30.3821 -0.216051,-30.382123 0.746651,-1.95511 c 0.410672,-1.07531 1.428817,-2.6118 2.26255,-3.41441 l 1.515899,-1.45931 47.0549722,-19.567118 47.054963,-19.567121 2.57515,-0.007 2.57516,-0.0053 47.04796,19.5596 47.04797,19.559619 1.35362,1.26975 c 0.74449,0.69835 1.74382,2.1125 2.22071,3.14257 l 0.86711,1.87283 0.0106,26.711373 0.0106,26.71134 -0.48903,6.29737 c -2.22274,28.62234 -11.87091,55.46538 -28.3763,78.94824 -5.34446,7.60377 -10.47316,13.6154 -17.80266,20.8675 -12.52653,12.39419 -24.28066,20.84824 -39.95064,28.73408 -7.9074,3.97937 -12.52365,5.80606 -14.64219,5.79405 l -1.511,-0.009 z m 12.340676,-21.36326 c 21.91663,-11.17505 39.3071,-26.79029 52.96822,-47.56119 11.08336,-16.85156 18.26044,-36.10873 21.37421,-57.35015 l 0.78613,-5.36282 0.19581,-26.45379 0.1958,-26.453783 -18.40379,-7.59116 c -10.12209,-4.17513 -28.61037,-11.8316 -41.08506,-17.01441 l -22.68127,-9.42329 -1.25385,0.393013 c -0.68959,0.216157 -19.303366,7.872652 -41.363934,17.014427 l -40.110132,16.62142 0.183509,26.453783 0.183491,26.45379 0.784945,5.3278 c 1.668599,11.32575 4.467127,22.28791 8.060581,31.57435 0.915207,2.36511 3.318246,7.67132 5.340075,11.79157 l 3.67606,7.49133 4.163233,6.32081 c 2.289784,3.47647 5.858145,8.44266 7.929684,11.03602 9.39182,11.75769 21.498682,22.5722 34.326612,30.66242 4.52111,2.85135 16.773866,9.30276 17.706546,9.32295 0.3393,0.007 3.49972,-1.45653 7.02313,-3.25309 z m -20.515806,-69.38781 -1.63875,-0.46567 -14.19058,-14.12363 c -7.80484,-7.768 -14.607923,-14.79385 -15.117977,-15.61302 l -0.927364,-1.48939 -0.279084,-2.35643 -0.279085,-2.35641 1.268472,-2.59267 1.268491,-2.59268 2.072339,-1.21447 c 1.139787,-0.66796 2.916753,-1.32774 3.94882,-1.46616 l 1.876514,-0.25169 2.220182,0.83308 2.220192,0.83309 10.42559,10.334 10.42557,10.334 20.710306,-20.68293 20.71028,-20.68291 1.74075,-0.7226 c 0.95741,-0.39744 2.6625,-0.72261 3.78908,-0.72261 h 2.04834 l 2.06353,1.08943 2.06353,1.0894 1.28596,1.83689 1.28598,1.83689 0.29934,2.22394 0.29933,2.22393 -0.82596,2.22405 -0.82597,2.22404 -24.16978,24.24393 -24.16978,24.24391 -2.315926,1.15641 -2.31591,1.15642 -1.66384,-0.0423 c -0.91514,-0.0232 -2.40129,-0.25178 -3.30259,-0.50789 z"
       id="path2" /></g></svg>
